<?xml version="1.0" encoding="UTF-8"?>
<svg width="128px" height="128px" viewBox="0 0 128 128" version="1.1" xmlns="http://www.w3.org/2000/svg" xmlns:xlink="http://www.w3.org/1999/xlink">
    <!-- Generator: Sketch 63.1 (92452) - https://sketch.com -->
    <title>faviconsafari-pinned-tab</title>
    <desc>Created with Sketch.</desc>
    <g id="favicon" stroke="none" stroke-width="1" fill="none" fill-rule="evenodd">
        <path d="M90.4456767,10.6812162 C91.9819548,9.24931621 93.1588383,8.89079897 94.8671115,10.6340093 C95.3528645,11.4399714 95.3413529,12.5188403 94.8385566,13.3142128 L94.8385566,13.3142128 L89.0878859,22.9278334 C91.7945041,23.5114128 94.0776139,24.4473852 95.9567426,25.799799 C99.3477432,28.2407783 101.195141,31.8522334 102.066833,35.8919955 C102.328821,37.1061059 102.494478,38.3744403 102.625933,39.681561 C106.422554,37.6196403 110.287386,35.0048886 114.287028,33.6582162 C115.451094,33.5831955 116.61096,34.4102093 116.91788,35.5343714 C117.224813,36.6584059 116.645968,37.9591472 115.604893,38.4848024 L115.604893,38.4848024 L102.905489,45.4256197 C102.917026,51.1387641 102.410657,57.5118228 102.346377,64.3335 L102.346377,64.3335 L114.366892,64.3335 C115.717666,64.3137241 116.960622,65.5371483 116.960622,66.8865 C116.960622,68.2357241 115.717666,69.4585103 114.366892,69.4393724 L114.366892,69.4393724 L102.226574,69.4393724 C101.993039,75.9146276 101.142808,81.9605552 99.3911773,87.3099897 L99.3911773,87.3099897 L113.088965,95.2880828 C114.24951,95.9565069 114.69663,97.6193379 114.027499,98.7784586 C113.35838,99.9377069 111.693656,100.384386 110.533111,99.7159621 L110.533111,99.7159621 L97.4742871,92.0968966 C96.8046816,93.5018759 96.075034,94.8521207 95.2379151,96.1256862 C92.9479035,99.6096828 89.9918206,102.500148 86.3323529,104.662224 L86.3323529,104.662224 L94.6388901,115.073386 C95.475292,116.117807 95.2850371,117.8281 94.2395316,118.663534 C93.1940261,119.498969 91.4817578,119.308993 90.645356,118.264572 L90.645356,118.264572 L81.5401145,106.896131 C77.8230249,108.255179 73.5855322,109.010107 68.8007718,109.010107 C66.9441157,109.010107 65.0883048,108.847434 63.2497676,108.571338 L63.2497676,108.571338 L63.2497676,115.392607 C63.2688724,116.741321 62.044342,117.981841 60.6939139,117.981841 C59.343473,117.981841 58.118981,116.741321 58.1380602,115.392607 C58.1380602,112.765224 58.136831,110.104797 58.1380602,107.494383 C53.1137974,106.069755 48.2897389,103.712345 43.8012962,100.673241 L43.8012962,100.673241 L38.6496505,110.206866 C38.0839054,111.498931 36.3251426,112.100883 35.0850541,111.426207 C33.8449785,110.751531 33.3968846,108.949376 34.1769066,107.773541 L34.1769066,107.773541 L39.6879724,97.601731 C37.8050023,96.0745241 35.9944438,94.4355517 34.296709,92.6952759 C32.6112798,90.967631 31.0176102,89.1343448 29.544409,87.2303759 L29.544409,87.2303759 L18.4823517,93.373269 C17.3109359,94.0285517 15.6473261,93.5554621 14.9971072,92.3820517 C14.3468755,91.2088966 14.8286206,89.5495103 16.0063621,88.9057103 L16.0063621,88.9057103 L26.5892096,83.0418483 C23.7996926,78.7285414 21.6293426,74.1460276 20.2395011,69.3995655 C18.452017,69.4722897 16.516073,69.4263586 14.6884968,69.4391172 C13.3470578,69.5075034 12.0653027,68.346469 12.0024307,67.006431 C11.9395332,65.6661379 13.1069283,64.3906586 14.448892,64.3332448 L14.448892,64.3332448 L19.0813767,64.3332448 C18.7269249,62.2107207 18.5222773,60.08294 18.5222773,57.9508469 C18.5222773,53.9047055 19.5715218,50.1670676 21.3576871,46.8216679 L21.3576871,46.8216679 L13.41057,42.2742403 C12.4471314,41.7457783 11.9057667,40.5467231 12.1470362,39.4756369 C12.9017814,38.2468541 14.1782865,36.9556817 15.9664237,37.8464886 L15.9664237,37.8464886 L24.193084,42.553399 C27.6833096,38.3764817 32.3402261,35.2471748 37.651267,32.1419817 L37.651267,32.1419817 L29.0651865,17.0638438 C28.2098718,15.61523 29.271998,13.4481783 30.9421511,13.2344714 C31.9649791,13.0946369 33.0473243,13.6433852 33.5379432,14.5506507 L33.5379432,14.5506507 L42.3236901,29.9481369 C47.3181176,27.8145128 52.7072426,26.1459403 58.1380602,24.9220059 L58.1380602,24.9220059 L58.1380602,15.8271507 C58.1109267,14.5654507 59.1584938,13.3722645 60.4143706,13.2344714 C61.8558285,13.0757541 63.2810115,14.3790472 63.2497676,15.8271507 L63.2497676,15.8271507 L63.2497676,23.8849852 C69.1215212,22.8718231 76.5912596,22.2007197 83.4969432,22.2492024 L83.4969432,22.2492024 Z M73.473195,65.6094897 C66.4456602,65.6094897 60.6939139,71.3546966 60.6939139,78.3742345 C60.6939139,85.3939 66.4456602,91.1389793 73.473195,91.1389793 C80.5007298,91.1389793 86.2524761,85.3939 86.2524761,78.3742345 C86.2524761,71.3546966 80.5007298,65.6094897 73.473195,65.6094897 Z M40.247059,45.1459507 C35.3368621,45.1459507 31.3015712,49.2165886 31.3015712,54.1210917 C31.3015712,59.0257607 35.3368621,63.0564897 40.247059,63.0564897 C45.157256,63.0564897 49.1925596,59.0257607 49.1925596,54.1210917 C49.1925596,49.2165886 45.157256,45.1459507 40.247059,45.1459507 Z M79.862842,37.4872059 C74.9526322,37.4872059 70.9173413,41.5577162 70.9173413,46.4623852 C70.9173413,51.3668883 74.9526322,55.3977193 79.862842,55.3977193 C84.7730261,55.3977193 88.8083298,51.3668883 88.8083298,46.4623852 C88.8083298,41.5577162 84.7730261,37.4872059 79.862842,37.4872059 Z" id="Shape" fill="#2E7400" fill-rule="nonzero"></path>
    </g>
</svg>