<?xml version="1.0" encoding="UTF-8"?>
<svg width="128px" height="128px" viewBox="0 0 128 128" version="1.1" xmlns="http://www.w3.org/2000/svg" xmlns:xlink="http://www.w3.org/1999/xlink">
    <!-- Generator: Sketch 57.1 (83088) - https://sketch.com -->
    <title>_safari-pinned-tab</title>
    <desc>Created with Sketch.</desc>
    <g id="_" stroke="none" stroke-width="1" fill="none" fill-rule="evenodd">
        <path d="M64,14 C99.3457762,14 128,42.6542238 128,78 C128,90.9183249 124.172405,102.942801 117.589452,113.001189 L10.4105478,113.001189 C3.82759527,102.942801 0,90.9183249 0,78 C0,42.6542238 28.6542238,14 64,14 Z M64,22.4918178 C33.3926581,22.4918178 8.49181778,47.3926581 8.49181778,78 C8.49181778,87.6230457 10.9532499,96.6820074 15.279582,104.580353 L15.279582,104.580353 L112.720418,104.580353 C117.04675,96.6820074 119.508182,87.6230457 119.508182,78 C119.508182,47.3926581 94.6073419,22.4918178 64,22.4918178 Z M93.7694825,47.6743034 C95.5725785,46.1740823 98.2503317,46.4189297 99.7505529,48.2206103 C101.250774,50.022291 101.007342,52.6986289 99.2056612,54.2002654 L99.2056612,54.2002654 L73.7556833,75.4000885 C73.9764706,76.2308713 74.1052632,77.0998673 74.1052632,78 C74.1052632,83.5805396 69.5805396,88.1052632 64,88.1052632 C58.4194604,88.1052632 53.8947368,83.5805396 53.8947368,78 C53.8947368,72.4194604 58.4194604,67.8947368 64,67.8947368 C65.5469261,67.8947368 67.0075188,68.2528085 68.3195046,68.8755418 L68.3195046,68.8755418 Z M64,31.4492702 C72.9588678,31.4492702 81.6658116,34.0123839 89.1824856,38.8626272 C91.1525874,40.1335692 91.7187085,42.7617868 90.4477665,44.7318885 C89.179655,46.700575 86.5486068,47.2695268 84.5785051,45.9971694 C78.4375055,42.0343211 71.3227775,39.941088 64,39.941088 C43.0138877,39.941088 25.941088,57.0138877 25.941088,78 C25.941088,80.345157 24.0403361,82.2459089 21.6951791,82.2459089 C19.3500221,82.2459089 17.4492702,80.345157 17.4492702,78 C17.4492702,52.3320655 38.3320655,31.4492702 64,31.4492702 Z" id="Combined-Shape" fill="#F13A3A" fill-rule="nonzero"></path>
    </g>
</svg>