<?xml version="1.0" encoding="UTF-8"?>
<svg width="128px" height="128px" viewBox="0 0 128 128" version="1.1" xmlns="http://www.w3.org/2000/svg" xmlns:xlink="http://www.w3.org/1999/xlink">
    <!-- Generator: Sketch 56.2 (81672) - https://sketch.com -->
    <title>faviconsafari-pinned-tab</title>
    <desc>Created with Sketch.</desc>
    <g id="favicon" stroke="none" stroke-width="1" fill="none" fill-rule="evenodd">
        <path d="M45.217202,116.930739 L59.356987,116.930739 C59.9092717,116.930739 60.356987,116.483024 60.356987,115.930739 L60.356987,113.801707 C60.356987,113.249422 59.9092717,112.801707 59.356987,112.801707 L45.217202,112.801707 L45.217202,90.7802013 L67.6150515,90.7802013 C68.1673362,90.7802013 68.6150515,90.3324861 68.6150515,89.7802013 L68.6150515,87.6511691 C68.6150515,87.0988843 68.1673362,86.6511691 67.6150515,86.6511691 L45.217202,86.6511691 L45.217202,66.0060078 L59.356987,66.0060078 C59.9092717,66.0060078 60.356987,65.5582925 60.356987,65.0060078 L60.356987,62.8769755 C60.356987,62.3246908 59.9092717,61.8769755 59.356987,61.8769755 L45.217202,61.8769755 L45.217202,39.8554702 L67.6150515,39.8554702 C68.1673362,39.8554702 68.6150515,39.4077549 68.6150515,38.8554702 L68.6150515,36.7264379 C68.6150515,36.1741531 68.1673362,35.7264379 67.6150515,35.7264379 L45.217202,35.7264379 L45.217202,13.7049325 L59.356987,13.7049325 C59.9092717,13.7049325 60.356987,13.2572173 60.356987,12.7049325 L60.356987,10.5759003 C60.356987,10.0236155 59.9092717,9.57590026 59.356987,9.57590026 L45.217202,9.57590026 L45.217202,1.43611531 C45.217202,-2.42987794 48.3512088,-5.56388469 52.217202,-5.56388469 L75.3784924,-5.56388469 C79.2444856,-5.56388469 82.3784924,-2.42987794 82.3784924,1.43611531 L82.3784924,125.070524 C82.3784924,128.936517 79.2444856,132.070524 75.3784924,132.070524 L52.217202,132.070524 C48.3512088,132.070524 45.217202,128.936517 45.217202,125.070524 L45.217202,116.930739 Z" id="Rectangle-2" fill="#FC7A25" transform="translate(63.797847, 63.253320) rotate(51.000000) translate(-63.797847, -63.253320) "></path>
    </g>
</svg>