<?xml version="1.0" encoding="UTF-8"?>
<svg width="16px" height="10px" viewBox="0 0 16 10" version="1.1" xmlns="http://www.w3.org/2000/svg" xmlns:xlink="http://www.w3.org/1999/xlink">
    <title>down</title>
    <g id="Page-1" stroke="none" stroke-width="1" fill="none" fill-rule="evenodd">
        <g id="Artboard" transform="translate(-456.000000, -457.000000)" fill="#000000" fill-rule="nonzero">
            <path d="M463.724121,466.338867 C463.835449,466.338867 463.942383,466.316895 464.044922,466.272949 C464.147461,466.229004 464.236816,466.166016 464.312988,466.083984 L471.115723,459.114258 C471.273926,458.956055 471.353027,458.768555 471.353027,458.551758 C471.353027,458.399414 471.317871,458.261719 471.247559,458.138672 C471.177246,458.015625 471.082031,457.918945 470.961914,457.848633 C470.841797,457.77832 470.705566,457.743164 470.553223,457.743164 C470.336426,457.743164 470.145996,457.819336 469.981934,457.97168 L463.719,464.374 L457.45752,457.97168 C457.299316,457.819336 457.108887,457.743164 456.88623,457.743164 C456.733887,457.743164 456.597656,457.77832 456.477539,457.848633 C456.357422,457.918945 456.262207,458.015625 456.191895,458.138672 C456.121582,458.261719 456.086426,458.399414 456.086426,458.551758 C456.086426,458.663086 456.106934,458.76709 456.147949,458.86377 C456.188965,458.960449 456.247559,459.046875 456.32373,459.123047 L463.126465,466.083984 C463.302246,466.253906 463.501465,466.338867 463.724121,466.338867 Z" id="down"></path>
        </g>
    </g>
</svg>