<?xml version="1.0" encoding="UTF-8"?>
<svg width="48px" height="48px" viewBox="0 0 48 48" version="1.1" xmlns="http://www.w3.org/2000/svg" xmlns:xlink="http://www.w3.org/1999/xlink">
    <!-- Generator: Sketch 56.2 (81672) - https://sketch.com -->
    <title>globe</title>
    <desc>Created with Sketch.</desc>
    <g id="Page-1" stroke="none" stroke-width="1" fill="none" fill-rule="evenodd">
        <g id="Mobile" transform="translate(-383.000000, -62.000000)">
            <g id="globe" transform="translate(383.000000, 62.000000)">
                <g>
                    <path d="M7.03177656,7.02886171 C4.87957054,9.17920824 3.15627779,11.7190391 1.95466581,14.5141623 L1.95139166,14.5217993 C0.663560476,17.5154831 0,20.7404574 0,23.9981615 C0,37.1653519 10.8385182,48 24.010412,48 C30.3753539,48 36.4860038,45.471079 40.9868646,40.9718253 C41.8752499,40.0717564 42.6916039,39.1040459 43.4293783,38.0763308 C43.4904958,38.0195992 43.5450649,37.9563216 43.5919943,37.8864981 C43.6050909,37.8668602 43.6061823,37.8439493 43.6181875,37.8232205 C50.1763041,28.5694208 49.291193,15.8615383 41.5118195,7.60599683 C41.507454,7.59945087 41.507454,7.59072293 41.5019971,7.58308598 C41.4637987,7.53726429 41.4212348,7.49471558 41.3753967,7.45653083 C41.2422481,7.31688377 41.1243788,7.16523579 40.9868646,7.02886171 C39.2231907,5.26690857 37.1954023,3.7907955 34.9766219,2.65289016 C34.9613426,2.64525321 34.9460632,2.63652527 34.9296925,2.62997931 C28.4130484,-0.708458222 20.7111631,-0.877562084 14.0548221,2.17394438 C13.9915219,2.19685523 13.9314959,2.22522104 13.874744,2.25904181 C11.3318231,3.43731388 9.01590969,5.05198301 7.03177656,7.02886171 Z M32.359487,3.82788925 C31.8039734,4.12027528 31.1927993,4.29047014 30.5663458,4.3264729 C28.9991207,4.3853865 26.8971183,4.71486628 25.7817255,5.95423394 C25.2611362,6.52264112 25.0013872,7.283063 25.0625046,8.05112183 C25.072327,8.77226798 25.3931934,9.45632037 25.9410674,9.92544722 C26.8840217,10.6847781 28.1773098,10.4949454 29.4269426,10.3105676 C30.2793123,10.1861945 31.3390445,10.0301825 31.719937,10.3422064 C32.6148705,11.0382597 33.7248064,11.3982873 34.8576613,11.3590116 C36.8199668,11.2662772 38.724429,10.6607763 40.380056,9.60360438 C41.2684413,10.6094996 42.0618762,11.6950373 42.7494471,12.8471256 C41.3262845,13.2780677 39.8769288,13.6206394 38.4101109,13.8726587 C37.1997678,14.0526724 35.8540934,13.3326173 34.5520742,12.633291 C33.7881066,12.1761651 32.9684784,11.8150465 32.1150174,11.5608452 C30.09596,11.0306228 27.9503023,11.2586402 26.0873126,12.2023489 C25.2884207,12.6682028 24.7121708,13.4417166 24.4938944,14.3406945 C24.0573414,17.0048986 25.4172038,19.6614657 27.8335244,20.8659216 C29.9366182,21.7223508 32.2121504,22.0671045 34.4734947,21.8696348 C34.5869984,21.844542 34.7015936,21.8325411 34.8172801,21.8325411 C35.6794722,21.8325411 36.3888707,22.5416863 36.3888707,23.4035705 C36.3888707,23.6686817 36.321205,23.93052 36.1924219,24.1629014 C35.5746995,25.9172176 36.7795856,28.229031 37.7476418,30.0859006 C37.9604613,30.4939318 38.1547274,30.8659603 38.2955157,31.1747112 C38.473411,31.6285642 38.621839,32.093327 38.7364342,32.5668179 C39.0965904,34.3855026 39.9391375,36.0732683 41.1756738,37.454465 C40.6376223,38.1461543 40.060281,38.8062049 39.44365,39.4291617 C35.3531489,43.5291121 29.7914643,45.8354706 23.9984068,45.8354706 C12.0303078,45.8354706 2.18167334,35.9903528 2.18167334,24.0254363 C2.18167334,22.0070999 2.46106723,19.9996734 3.0133067,18.0587975 C3.90933162,19.9003931 5.40998237,21.3808701 7.264241,22.2514823 C7.56655392,22.3704005 7.88742033,22.4325871 8.21265228,22.434769 C8.81618672,22.444588 9.39352799,22.1783858 9.77769458,21.7125319 C10.5089208,20.6673609 10.5864089,19.2938012 9.97850894,18.1722607 C9.91193461,18.0620705 9.81043605,17.9104225 9.68820123,17.7282267 C9.21890681,17.1139978 8.84565405,16.4321274 8.57826537,15.7055263 C8.78562802,15.6913434 8.99299066,15.6989804 9.19926193,15.7273462 C13.0354709,15.9509997 16.694876,14.0286706 18.6866488,10.7436917 C19.2847263,9.94508509 20.0617906,9.29812644 20.9556327,8.85518342 C22.1255946,8.12749132 23.7288353,7.13250601 22.9321262,5.69021372 C22.1375998,4.25228539 20.3772001,4.36465764 19.2137865,4.44211812 C18.9835048,4.45630102 18.6735522,4.48030286 18.4498188,4.4737569 C18.2053492,3.95771738 17.8124515,3.52568428 17.3202381,3.23438924 C22.2456467,1.64808592 27.5759581,1.8586475 32.359487,3.82788925 L32.359487,3.82788925 Z M21.5548017,26.1245062 L20.9381706,25.0149667 C20.2058531,23.6981385 18.8121578,22.878803 17.3060501,22.878803 L16.0695139,22.878803 C15.507452,22.8406183 15.0130558,22.4882277 14.7925965,21.9689152 C14.3953334,21.2281312 13.5953501,20.7895521 12.7571684,20.8539207 L12.7538943,20.8539207 C11.6919792,20.9870218 10.7206489,21.5270631 10.0483574,22.3594905 C9.23091202,23.182099 7.84813057,24.9407792 7.85790096,26.308884 C7.87432374,28.982907 11.9506369,31.0688849 12.9721708,31.5467397 C13.0736693,31.8434897 13.2984941,32.9246634 12.9907243,36.3329245 L12.9219672,37.0366148 C12.5487144,38.6654668 12.8684894,40.3783253 13.8038041,41.762795 C14.454268,42.6705009 15.4692536,43.252 16.5824636,43.3523713 C16.6654087,43.3523713 16.7494451,43.3469163 16.8312988,43.3360064 C18.1267697,43.1603566 18.8721838,42.2450137 19.0435308,40.6172527 C19.1330242,39.9375643 19.1788623,39.2524209 19.181045,38.5661865 C19.1701312,37.5602913 19.9340988,36.5500321 21.4522117,35.5626837 C23.2715461,34.3822296 24.3891216,31.6831138 25.0068441,29.6265926 C25.0657787,29.431305 25.095246,29.2283803 25.095246,29.0243647 C25.095246,27.9737388 24.2963541,27.0802158 23.2519012,26.9623886 L22.7225808,26.902384 C22.2314587,26.8467433 21.7949058,26.5565393 21.5537103,26.1245062 L21.5548017,26.1245062 Z" id="Shape" fill="#535353"></path>
                    <path d="M8.56695202,8.33321696 C10.3065011,6.62523834 12.3272554,5.21803582 14.5431095,4.17391304 C15.2068848,4.36726911 15.8314221,4.67449043 16.3872931,5.08053817 C16.6336202,6.58441872 18.3818888,6.47162768 19.333409,6.41147246 C19.69636,6.38139485 20.061491,6.37280125 20.4255319,6.38354325 C20.2108131,6.5231893 19.9732056,6.66928055 19.7813756,6.7874426 C18.5126819,7.41262723 17.4434479,8.37081398 16.6935671,9.55673121 C15.0978905,11.9425303 12.3501442,13.3432876 9.45198574,13.2466096 C8.06775812,13.0844053 7.12604737,13.3873298 6.64974227,14.1532347 C5.80285656,15.5142466 7.04648153,17.339313 7.8693885,18.5467143 C7.96639342,18.6895829 8.04922909,18.8088192 8.10154636,18.8958294 C8.21817026,19.1933829 8.22906969,19.521014 8.13424465,19.826087 C8.10045641,19.8174934 8.06666818,19.8067513 8.03396989,19.7938609 C6.31077,19.1471923 4.79247939,16.8451809 4.08510638,14.7687515 C5.16632984,12.3722104 6.68571039,10.1905094 8.56695202,8.33321696 Z" id="Path" fill="#FFD6BB"></path>
                    <path d="M42.5527675,35.4782609 C41.7448616,34.4076492 41.1890135,33.176392 40.9226466,31.8707417 C40.7784563,31.2928487 40.5891378,30.7257372 40.3590937,30.1758762 C40.2038965,29.8405688 39.9903628,29.4373375 39.7537146,28.9942142 C39.142832,27.844897 38.0036186,25.7047519 38.3107109,24.8540847 C38.5198419,24.387242 38.6277094,23.8826637 38.6277094,23.3726946 C38.6277094,21.3500688 36.9282452,19.6853917 34.863352,19.6853917 C34.6905438,19.6853917 34.5177356,19.6972515 34.3471287,19.720971 C32.4121169,19.8880856 30.4638969,19.6045298 28.6609678,18.8940232 C27.2102593,18.1037328 26.385843,16.5253085 26.5817657,14.9113048 C26.6731229,14.5835446 26.8998649,14.3075359 27.2058565,14.1479684 C28.5872216,13.526949 30.1468983,13.39757 31.6141172,13.7824726 C32.2855377,13.9981044 32.9316423,14.2870509 33.5381221,14.6428433 C35.0152471,15.4201958 36.8522976,16.386226 38.7972156,16.1005139 C40.5230964,15.8083329 42.2269635,15.4072579 43.8989105,14.8994451 C47.0622916,21.527965 46.5537731,29.3004113 42.5527675,35.4782609 L42.5527675,35.4782609 Z" id="Path" fill="#FFD6BB"></path>
                    <path d="M38.8085106,8.20979743 C36.2725371,9.48054524 33.9424957,9.76533083 32.7740043,8.8732184 C31.5777467,7.95953131 29.9626833,8.18067163 28.5396689,8.37700109 C27.9160879,8.51400022 27.2693683,8.53988982 26.6353749,8.45143369 C26.5809996,8.35111149 26.5543904,8.2410807 26.5578612,8.12889244 C26.5347227,7.95198018 26.5983534,7.77398919 26.7313995,7.64561993 C27.7367649,6.99622249 28.9480625,6.68123237 30.1697724,6.7502713 C31.7165774,6.6467129 33.1962809,6.11273993 34.41452,5.2173913 C35.9995035,6.05125213 37.4745793,7.05555282 38.8085106,8.20979743 Z" id="Path" fill="#FFD6BB"></path>
                    <path d="M19.9701459,33.4204956 C17.8836687,34.8110676 16.8347008,36.4097451 16.853451,38.1727726 C16.8492843,38.7608042 16.8086589,39.3477685 16.7336583,39.9304641 C16.6576159,40.6647031 16.5169896,40.6849801 16.4680309,40.6956522 C16.0951108,40.5953346 15.7638578,40.3744226 15.522189,40.0659995 C14.8190576,39.0190685 14.8867666,38.3456603 15.0357262,36.8707789 L15.1044769,36.1557496 C15.5523976,31.0544956 14.9992676,29.783451 13.9607165,29.3843152 C13.0002912,29.0150612 10.219016,27.2392272 10.212766,26.1453391 C10.6867286,24.8006571 11.6096536,23.6715511 12.8169562,22.9565217 C12.8565399,22.9565217 12.8961236,22.9597234 12.9357072,22.9650594 C13.5055041,24.1496602 14.6784313,24.9127139 15.9680263,24.9372597 L17.1472037,24.9372597 C17.8305432,24.9372597 18.4617989,25.3171857 18.7940936,25.9286959 L19.3815989,27.0140463 C19.9388956,28.0407004 20.947238,28.7290495 22.08579,28.8603161 L22.4680851,28.9040716 C21.7909957,31.1708213 20.8826541,32.8132543 19.9701459,33.4204956 Z" id="Path" fill="#FFD6BB"></path>
                </g>
            </g>
        </g>
    </g>
</svg>