<?xml version="1.0" encoding="UTF-8"?>
<svg width="55px" height="56px" viewBox="0 0 55 56" version="1.1" xmlns="http://www.w3.org/2000/svg" xmlns:xlink="http://www.w3.org/1999/xlink">
    <!-- Generator: Sketch 56.2 (81672) - https://sketch.com -->
    <title>Analyzeloop</title>
    <desc>Created with Sketch.</desc>
    <g id="Analyzeloop" stroke="none" stroke-width="1" fill="none" fill-rule="evenodd">
        <g transform="translate(1.000000, 1.000000)" stroke="#535353" stroke-width="2">
            <path d="M35.5,35 C25.8350169,35 18,27.1649831 18,17.5 C18,7.83501688 25.8350169,0 35.5,0 C45.1649831,0 53,7.83501688 53,17.5 C53,27.1649831 45.1649831,35 35.5,35 Z M35.5,31 C42.9558441,31 49,24.9558441 49,17.5 C49,10.0441559 42.9558441,4 35.5,4 C28.0441559,4 22,10.0441559 22,17.5 C22,24.9558441 28.0441559,31 35.5,31 Z" id="Oval-96" fill="#FFD6BB" fill-rule="nonzero" stroke-linecap="round" stroke-linejoin="round"></path>
            <g id="Line-+-Rectangle-35" transform="translate(12.853553, 41.146447) rotate(45.000000) translate(-12.853553, -41.146447) translate(10.353553, 26.146447)">
                <path d="M2.29289322,0.514718626 L2.6267789,17.6461814" id="Line" stroke-linecap="square"></path>
                <rect id="Rectangle-35" fill="#FFD6BB" fill-rule="nonzero" stroke-linecap="round" stroke-linejoin="round" x="1.42108547e-14" y="18" width="5" height="12"></rect>
            </g>
            <path d="M31.7844788,10.7399648 C31.7844788,10.7399648 35.518712,7.78566639 38.1031323,10.2915023 C40.6875526,12.7973383 40.9457583,11.076164 40.9457583,11.076164" id="Path-103" stroke-linecap="round"></path>
        </g>
    </g>
</svg>